<svg viewBox="0 0 400 600" preserveAspectRatio="none" fill="none" xmlns="http://www.w3.org/2000/svg">
<path d="M25.5791 28.7763C27.7673 28.7763 32.8003 27.5893 35.4262 22.8413C38.7085 16.9062 44.4526 16.9062 48.5556 22.8413C52.6585 28.7763 47.735 18.39 57.582 14.6806C67.4291 10.9712 87.1231 14.6806 89.5849 9.4874C92.0467 4.29424 96.9702 22.8413 110.92 22.8413C113.792 22.8413 119.4 17.4008 116.664 14.6806C120.494 9.98199 121.178 16.9062 124.87 9.4874C125.964 13.0732 131.348 9.48736 154.411 9.4874C158.925 9.48741 168.772 22.8413 197.902 12.4549C203.373 11.5894 216.776 14.6806 218.827 18.7609C222.124 25.3177 218.827 9.4874 234.829 22.8413C242.761 20.121 259.528 15.4966 263.139 18.7609C267.652 22.8413 270.935 6.5199 291.86 9.4874C293.21 9.67893 302.938 -0.52798 306.63 0.58484C309.092 3.55236 314.015 14.6806 322.221 14.6806C332.479 17.4008 341.915 9.4874 350.532 18.7609C356.002 17.6481 367.6 14.8289 370.226 12.4549C373.508 9.4874 377.201 18.39 386.637 9.4874C388.997 7.26176 398.126 12.084 398.946 3.18142L401.818 14.6806C405.511 14.6806 413.717 22.8413 418.64 28.7763C422.196 24.8196 430.621 18.0932 435.873 22.8413C441.087 27.5557 455.363 13.0339 458.778 9.56001L458.849 9.4874L466.706 22.8413C475.562 16.9062 478.485 18.7609 485.706 18.7609C494.732 18.7609 500.699 19.8737 505.623 14.6806C510.546 9.4874 499.058 22.8413 526.137 22.8413C532.702 22.8413 552.396 28.7763 572.09 28.7763C561.422 48.0652 581.937 83.5 558.961 88.8686C531.625 95.2557 567.167 152.5 558.961 171.959L581.937 201.5L567.167 237.245V271.371C560.055 288.434 561.915 317.191 567.167 325.5C572.418 333.809 564.431 374.987 567.167 390.814C570.449 399.964 576.029 419.302 572.09 423.457C567.167 428.65 581.937 467.969 581.937 467.969C581.937 467.969 577.834 503.18 581.937 542.5C586.04 581.82 552.396 551.06 567.167 603.734C573.704 627.047 575.098 634.955 575.118 637.235C575.38 637.509 575.731 637.945 576.193 638.602C581.937 646.763 515.47 611.894 505.623 620.055C495.776 628.216 412.076 628.216 412.076 628.216C412.076 628.216 403.049 638.602 395.664 638.602C390.74 637.118 375.477 633.854 353.814 632.667C361.199 633.167 297.073 629.699 291.86 638.602C284.474 651.214 258.912 636.376 250.706 628.216C242.5 620.055 235.649 643.053 154.411 620.055L98.7058 638.602C85.8499 638.849 94.767 617.809 98.7058 609.5C103.629 599.114 25.5791 632.667 25.5791 632.667C25.5791 632.667 31.597 619.915 35.4264 566.5L6.70575 442.5L15.7321 376.5C12.7232 364.63 21.148 321.345 6.70571 325.5C-11.3472 330.693 15.7321 286.144 15.7321 276.5C15.7321 266.856 20.6556 237.435 15.7321 231.5C10.8085 225.565 25.5791 192.732 15.7321 191.248C7.85443 190.061 12.4497 146.241 15.7321 124.479C22.2968 136.349 35.4262 151.038 35.4262 114.834C35.4262 78.6306 22.2968 94.3091 15.7321 106.674L6.70561 56.9677C12.9968 56.9677 25.5791 51.3295 25.5791 28.7763Z" fill="white"/>
<path d="M25.5791 28.7763C27.7673 28.7763 32.8003 27.5893 35.4262 22.8413C38.7085 16.9062 44.4526 16.9062 48.5556 22.8413C52.6585 28.7763 47.735 18.39 57.582 14.6806C67.4291 10.9712 87.1231 14.6806 89.5849 9.4874C92.0467 4.29424 96.9702 22.8413 110.92 22.8413C113.792 22.8413 119.4 17.4008 116.664 14.6806C120.494 9.98199 121.178 16.9062 124.87 9.4874C125.964 13.0732 131.348 9.48736 154.411 9.4874C158.925 9.48741 168.772 22.8413 197.902 12.4549C203.373 11.5894 216.776 14.6806 218.827 18.7609C222.124 25.3177 218.827 9.4874 234.829 22.8413C242.761 20.121 259.528 15.4966 263.139 18.7609C267.652 22.8413 270.935 6.5199 291.86 9.4874C293.21 9.67893 302.938 -0.52798 306.63 0.58484C309.092 3.55236 314.015 14.6806 322.221 14.6806C332.479 17.4008 341.915 9.4874 350.532 18.7609C356.002 17.6481 367.6 14.8289 370.226 12.4549C373.508 9.4874 377.201 18.39 386.637 9.4874C388.997 7.26176 398.126 12.084 398.946 3.18142L401.818 14.6806C405.511 14.6806 413.717 22.8413 418.64 28.7763C422.196 24.8196 430.621 18.0932 435.873 22.8413C441.124 27.5893 455.567 12.8259 458.849 9.4874L466.706 22.8413C475.562 16.9062 478.485 18.7609 485.706 18.7609C494.732 18.7609 500.699 19.8737 505.623 14.6806C510.546 9.4874 499.058 22.8413 526.137 22.8413C532.702 22.8413 552.396 28.7763 572.09 28.7763C561.423 48.0652 581.937 83.5 558.961 88.8686C531.625 95.2557 567.167 152.5 558.961 171.959L581.937 201.5L567.167 237.245V271.371C560.055 288.434 561.915 317.191 567.167 325.5C572.418 333.809 564.431 374.987 567.167 390.814C570.449 399.964 576.029 419.302 572.09 423.457C567.167 428.65 581.937 467.969 581.937 467.969C581.937 467.969 577.834 503.18 581.937 542.5C586.04 581.82 552.396 551.06 567.167 603.734C581.937 656.407 570.449 630.441 576.193 638.602C581.937 646.763 515.47 611.894 505.623 620.055C495.776 628.216 412.076 628.216 412.076 628.216C412.076 628.216 403.049 638.602 395.664 638.602C390.74 637.118 375.477 633.854 353.814 632.667C361.199 633.167 297.073 629.699 291.86 638.602C284.474 651.214 258.912 636.376 250.706 628.216C242.5 620.055 235.649 643.053 154.411 620.055L98.7058 638.602C85.8499 638.849 94.767 617.809 98.7058 609.5C103.629 599.114 25.5791 632.667 25.5791 632.667C25.5791 632.667 31.597 619.915 35.4264 566.5L6.70575 442.5L15.7321 376.5C12.7232 364.63 21.148 321.345 6.70571 325.5C-11.3472 330.693 15.7321 286.144 15.7321 276.5C15.7321 266.856 20.6556 237.435 15.7321 231.5C10.8085 225.565 25.5791 192.732 15.7321 191.248C7.85443 190.061 12.4497 146.241 15.7321 124.479C22.2968 136.349 35.4262 151.038 35.4262 114.834C35.4262 78.6306 22.2968 94.3091 15.7321 106.674L6.70561 56.9677C12.9968 56.9677 25.5791 51.3295 25.5791 28.7763Z" stroke="white"/>
</svg>
