<svg viewBox="0 0 400 600" preserveAspectRatio="none" fill="none" xmlns="http://www.w3.org/2000/svg">
<path d="M19.4725 28.7763C21.6607 28.7763 26.6937 27.5893 29.3195 22.8413C32.6019 16.9062 38.346 16.9062 42.4489 22.8413C46.5519 28.7763 41.6284 18.39 51.4754 14.6806C61.3224 10.9712 81.0165 14.6806 83.4783 9.4874C85.9401 4.29424 90.8636 22.8413 104.814 22.8413C107.686 22.8413 113.293 17.4008 110.558 14.6806C114.387 9.98199 115.071 16.9062 118.764 9.4874C119.858 13.0732 125.242 9.48736 148.305 9.4874C152.818 9.48741 162.665 22.8413 191.796 12.4549C197.266 11.5894 210.669 14.6806 212.721 18.7609C216.017 25.3177 212.721 9.4874 228.722 22.8413C236.655 20.121 253.422 15.4966 257.032 18.7609C261.546 22.8413 264.828 6.5199 285.753 9.4874C287.104 9.67893 296.831 -0.52798 300.524 0.58484C302.985 3.55236 307.909 14.6806 316.115 14.6806C326.372 17.4008 335.809 9.4874 344.425 18.7609C349.896 17.6481 361.493 14.8289 364.119 12.4549C367.401 9.4874 371.094 18.39 380.531 9.4874C382.89 7.26176 392.019 12.084 392.84 3.18142L395.712 14.6806C399.404 14.6806 407.61 22.8413 412.534 28.7763C416.09 24.8196 424.514 18.0932 429.766 22.8413C435.018 27.5893 442.895 22.0994 446.178 18.7609L452.743 28.7763C453.837 26.7979 457.83 22.8413 465.051 22.8413C474.078 22.8413 494.592 19.8737 499.516 14.6806C504.44 9.4874 492.951 22.8413 520.031 22.8413C526.595 22.8413 522.492 28.7763 542.187 28.7763C531.519 48.0652 554.988 83.6754 552.854 88.8686C542.187 114.834 552.854 157.863 552.854 171.959V202.376L561.06 237.245V271.371C553.948 288.434 541.038 324.638 546.289 332.947C551.541 341.256 558.325 374.987 561.06 390.814C564.342 399.964 569.922 419.302 565.984 423.457C561.06 428.65 579.933 424.94 575.831 467.969C571.728 510.998 561.881 502.838 565.984 542.157C570.086 581.477 546.289 551.06 561.06 603.734C567.597 627.047 568.991 634.955 569.011 637.235C569.273 637.509 569.624 637.945 570.086 638.602C575.831 646.763 496.234 630.441 486.387 638.602C476.54 646.763 497.875 646.763 405.969 628.216C397.763 626.56 396.943 638.602 389.557 638.602C384.642 637.121 369.421 633.865 347.813 632.673C354.478 632.946 293.812 611.197 288.625 620.055C281.24 632.667 253.34 636.376 245.134 628.216C236.928 620.055 221.337 655.665 140.099 632.667L135.175 648.246C122.319 648.494 97.5924 646.911 101.531 638.602C106.455 628.216 19.4725 632.667 19.4725 632.667C19.4725 632.667 38.6195 521.385 42.4489 467.969C31.289 467.969 21.1137 360.644 24.396 306.981H46.5519C43.5431 295.111 33.9148 272.41 19.4725 276.564C1.41958 281.757 28.499 272.855 28.499 263.21C28.499 253.566 29.3195 243.18 24.396 237.245C19.4725 231.31 19.4725 192.732 9.62546 191.248C1.74782 190.061 6.34311 146.241 9.62546 124.479C16.1902 136.349 29.3195 151.038 29.3195 114.834C29.3195 78.6306 16.1902 94.3091 9.62546 106.674L0.598999 56.9677C6.89017 56.9677 19.4725 51.3295 19.4725 28.7763Z" fill="white"/>
<path d="M19.4725 28.7763C21.6607 28.7763 26.6937 27.5893 29.3195 22.8413C32.6019 16.9062 38.346 16.9062 42.4489 22.8413C46.5519 28.7763 41.6284 18.39 51.4754 14.6806C61.3224 10.9712 81.0165 14.6806 83.4783 9.4874C85.9401 4.29424 90.8636 22.8413 104.814 22.8413C107.686 22.8413 113.293 17.4008 110.558 14.6806C114.387 9.98199 115.071 16.9062 118.764 9.4874C119.858 13.0732 125.242 9.48736 148.305 9.4874C152.818 9.48741 162.665 22.8413 191.796 12.4549C197.266 11.5894 210.669 14.6806 212.721 18.7609C216.017 25.3177 212.721 9.4874 228.722 22.8413C236.655 20.121 253.422 15.4966 257.032 18.7609C261.546 22.8413 264.828 6.5199 285.753 9.4874C287.104 9.67893 296.831 -0.52798 300.524 0.58484C302.985 3.55236 307.909 14.6806 316.115 14.6806C326.372 17.4008 335.809 9.4874 344.425 18.7609C349.896 17.6481 361.493 14.8289 364.119 12.4549C367.401 9.4874 371.094 18.39 380.531 9.4874C382.89 7.26176 392.019 12.084 392.84 3.18142L395.712 14.6806C399.404 14.6806 407.61 22.8413 412.534 28.7763C416.09 24.8196 424.514 18.0932 429.766 22.8413C435.018 27.5893 442.895 22.0994 446.178 18.7609L452.743 28.7763C453.837 26.7979 457.83 22.8413 465.051 22.8413C474.078 22.8413 494.592 19.8737 499.516 14.6806C504.44 9.4874 492.951 22.8413 520.031 22.8413C526.595 22.8413 522.492 28.7763 542.187 28.7763C531.519 48.0652 554.988 83.6754 552.854 88.8686C542.186 114.834 552.854 157.863 552.854 171.959V202.376L561.06 237.245V271.371C553.948 288.434 541.038 324.638 546.289 332.947C551.541 341.256 558.325 374.987 561.06 390.814C564.342 399.964 569.922 419.302 565.984 423.457C561.06 428.65 579.934 424.94 575.831 467.969C571.728 510.998 561.881 502.838 565.984 542.157C570.086 581.477 546.289 551.06 561.06 603.734C575.831 656.407 564.342 630.441 570.086 638.602C575.831 646.763 496.234 630.441 486.387 638.602C476.54 646.763 497.875 646.763 405.969 628.216C397.763 626.56 396.943 638.602 389.557 638.602C384.634 637.118 369.371 633.854 347.707 632.667C355.093 633.167 293.838 611.152 288.625 620.055C281.24 632.667 253.34 636.376 245.134 628.216C236.928 620.055 221.337 655.665 140.099 632.667L135.175 648.246C122.319 648.494 97.5924 646.911 101.531 638.602C106.455 628.216 19.4725 632.667 19.4725 632.667C19.4725 632.667 38.6195 521.385 42.4489 467.969C31.289 467.969 21.1137 360.644 24.396 306.981H46.5519C43.5431 295.111 33.9148 272.41 19.4725 276.564C1.41958 281.757 28.499 272.855 28.499 263.21C28.499 253.566 29.3195 243.18 24.396 237.245C19.4725 231.31 19.4725 192.732 9.62546 191.248C1.74782 190.061 6.34311 146.241 9.62546 124.479C16.1902 136.349 29.3195 151.038 29.3195 114.834C29.3195 78.6306 16.1902 94.3091 9.62546 106.674L0.598999 56.9677C6.89017 56.9677 19.4725 51.3295 19.4725 28.7763Z" stroke="white"/>
</svg>
