<svg viewBox="0 0 400 600" preserveAspectRatio="none" fill="none" xmlns="http://www.w3.org/2000/svg">
<path d="M558.806 3.20469C560.802 1.24433 572.342 8.3569 572.342 8.3569L574.333 17.9089C574.333 17.9089 558.033 22.8567 551.142 26.8569C544.251 30.8571 548.419 41.7218 550.253 47.4369C552.088 53.152 550.085 46.7679 555.047 53.593C560.009 60.418 568.53 71.6471 567.344 79.4612C566.159 87.2752 562.683 96.3243 560.588 111.414C558.494 126.503 545.342 146.037 551.188 154.402C557.033 162.766 563.585 171.799 563.08 181.815C562.574 191.831 560.753 194.639 560.472 204.279C560.191 213.918 559.828 243.286 563.049 249.371C566.269 255.455 573.766 271.219 575.378 295.708C576.989 320.197 570.158 351.235 573.059 372.857C575.961 394.479 576.139 405.959 573.059 420.857C569.979 435.755 569.277 456.502 573.059 466.357C576.841 476.212 576.787 483.801 571.823 487.357C566.859 490.913 577.515 492.151 573.059 498.261C568.604 504.371 567.481 507.629 568.015 514.935C568.549 522.242 567.601 540.602 572.585 545.581C577.57 550.559 573.939 555.189 574.642 563.357C575.345 571.525 577.626 579.542 576.637 587.075C575.647 594.608 578.094 605.636 575.865 612.315C573.637 618.994 566.022 622.55 569.175 626.581C572.327 630.612 578.381 640.123 575.865 641.668C573.35 643.212 577.634 641.218 571.823 641.668C566.012 642.117 541.96 629.405 536.06 632.37C534.478 633.165 533.83 633.451 533.631 633.533C533.957 633.422 535.142 633.143 532.19 635.84C527.132 640.461 519.835 643.782 516.142 645.857C512.449 647.932 489.642 645.857 489.642 645.857C489.642 645.857 464.458 642.953 461.441 643.192C458.424 643.431 436.044 641.516 417.772 642.785C399.501 644.054 401.256 646.715 396.81 647.406C392.364 648.098 376.734 635.791 367.409 639.071C358.083 642.35 354.686 644.226 349.918 646.285C345.15 648.343 320.349 650.753 302.642 646.099C284.936 641.445 270.979 649.823 256.642 646.099C242.306 642.375 239.788 635.646 242.642 636.837C245.496 638.028 235.769 633.51 236.727 636.837C237.685 640.164 229.642 646.099 229.642 646.099H212.642C212.642 646.099 198.878 642.525 189.642 643.857C180.407 645.188 167.267 646.317 161.142 643.857C155.017 641.397 142.402 644.847 130.497 641.42C118.593 637.993 113.296 635.728 96.8171 640.313C80.3387 644.899 55.3855 649.436 51.6422 647.857C47.8989 646.277 20.9178 645.287 13.5117 634.379C6.10563 623.471 4.25591 625.275 6.25097 619.989C8.24603 614.703 9.10238 601.124 5.58435 586.857C2.06633 572.589 2.78898 568.269 4.803 562.857C6.81703 557.444 5.58435 549.857 5.58435 549.857C5.58435 549.857 23.8385 535.427 32.7568 530.324C41.675 525.222 46.6577 522.497 45.3121 520.446C43.9666 518.394 35.6979 511.748 35.6979 511.748C35.6979 511.748 8.49378 488.421 6.60954 482.767C4.72529 477.114 2.67589 478.849 5.82821 472.466C8.98053 466.082 19.5186 445.62 20.467 442.857C21.4154 440.093 26.8759 413.109 23.7276 402.776C20.5794 392.444 21.1367 382.736 25.1466 364.896C29.1564 347.056 32.7221 336.369 34.35 325.541C35.9778 314.714 35.6424 311.415 33.4413 307.624C31.2403 303.833 26.5985 297.276 30.4714 291.091C34.3443 284.905 44.2269 269.508 46.643 265.945C49.059 262.381 49.8442 264.327 46.6134 262.354C43.3827 260.381 30.9639 254.677 20.7444 245.593C10.5248 236.508 3.18167 215.82 3.18167 215.82L13.6436 201.663L25.4998 183.709L13.6904 156.713L12.1446 136.33L4.80505 110.539L2.6422 86.8569L1.0575 64.779L15.0573 61.2711L13.4247 56.9564L8.12107 18.7508L4.80504 12.3569L8.12107 9.42903L2.6422 7.38827L4.80504 3.18321L9.6422 1.25961C9.6422 1.25961 7.5631 0.462031 20.467 1.66221C33.3709 2.86239 51.81 5.18954 64.2125 5.81034C76.615 6.43113 71.8382 5.59951 85.5996 7.38827C99.361 9.17703 125.535 5.72294 129.87 6.16969C134.206 6.61644 135.727 8.33531 146.627 9.58522C157.526 10.8351 172.08 10.9796 175.313 6.14934C178.546 1.31904 175.313 1.25961 175.313 1.25961C175.313 1.25961 179.381 1.06272 192.642 2.88266C205.903 4.7026 229.948 1.05643 245.201 3.18321C260.455 5.30999 270.134 0.796344 277.173 4.4784C284.212 8.16046 287.944 10.4452 292.666 9.92719C297.388 9.40917 311.712 0.823081 315.151 4.86641C318.59 8.90974 319.48 16.0629 323.498 18.1143C327.517 20.1656 327.975 19.6725 333.877 18.1125C339.779 16.5526 355.188 8.19513 361.559 9.85467C367.93 11.5142 361.816 12.9762 373.601 13.1233C385.387 13.2705 390.303 7.04283 407.113 8.64803C423.923 10.2532 448.222 5.9438 454.021 7.14881C459.82 8.35383 474.376 16.0836 480.804 15.7627C487.231 15.4418 489.455 11.1857 498.456 9.39104C507.456 7.59638 514.858 4.28847 525.867 4.54397C536.875 4.79947 543.54 8.23713 546.321 9.32842C549.102 10.4197 547.579 10.3101 549.995 9.17967C552.411 8.0492 556.81 5.16506 558.806 3.20469Z" fill="white"/>
<path d="M533.631 633.533C533.957 633.422 535.142 633.143 532.19 635.84C527.132 640.461 519.835 643.782 516.142 645.857C512.449 647.932 489.642 645.857 489.642 645.857C489.642 645.857 464.458 642.953 461.441 643.192C458.424 643.431 436.044 641.516 417.772 642.785C399.501 644.054 401.256 646.715 396.81 647.406C392.364 648.098 376.734 635.791 367.409 639.071C358.083 642.35 354.686 644.226 349.918 646.285C345.15 648.343 320.349 650.753 302.642 646.099C284.936 641.445 270.979 649.823 256.642 646.099C242.306 642.375 239.788 635.646 242.642 636.837C245.496 638.028 235.769 633.51 236.727 636.837C237.685 640.164 229.642 646.099 229.642 646.099H212.642C212.642 646.099 198.878 642.525 189.642 643.857C180.407 645.188 167.267 646.317 161.142 643.857C155.017 641.397 142.402 644.847 130.497 641.42C118.593 637.993 113.296 635.728 96.8171 640.313C80.3387 644.899 55.3855 649.436 51.6422 647.857C47.8989 646.277 20.9178 645.287 13.5117 634.379C6.10563 623.471 4.25591 625.275 6.25097 619.989C8.24603 614.703 9.10238 601.124 5.58435 586.857C2.06633 572.589 2.78898 568.269 4.803 562.857C6.81703 557.444 5.58435 549.857 5.58435 549.857C5.58435 549.857 23.8385 535.427 32.7568 530.324C41.675 525.222 46.6577 522.497 45.3121 520.446C43.9666 518.394 35.6979 511.748 35.6979 511.748C35.6979 511.748 8.49378 488.421 6.60954 482.767C4.72529 477.114 2.67589 478.849 5.82821 472.466C8.98053 466.082 19.5186 445.62 20.467 442.857C21.4154 440.093 26.8759 413.109 23.7276 402.776C20.5794 392.444 21.1367 382.736 25.1466 364.896C29.1564 347.056 32.7221 336.369 34.35 325.541C35.9778 314.714 35.6424 311.415 33.4413 307.624C31.2403 303.833 26.5985 297.276 30.4714 291.091C34.3443 284.905 44.2269 269.508 46.643 265.945C49.059 262.381 49.8442 264.327 46.6134 262.354C43.3827 260.381 30.9639 254.677 20.7444 245.593C10.5248 236.508 3.18167 215.82 3.18167 215.82L13.6436 201.663L25.4998 183.709L13.6904 156.713L12.1446 136.33L4.80505 110.539L2.6422 86.8569L1.0575 64.779L15.0573 61.2711L13.4247 56.9564L8.12107 18.7508L4.80504 12.3569L8.12107 9.42903L2.6422 7.38827L4.80504 3.18321L9.6422 1.25961C9.6422 1.25961 7.5631 0.462031 20.467 1.66221C33.3709 2.86239 51.81 5.18954 64.2125 5.81034C76.615 6.43113 71.8382 5.59951 85.5996 7.38827C99.361 9.17703 125.535 5.72294 129.87 6.16969C134.206 6.61644 135.727 8.33531 146.627 9.58522C157.526 10.8351 172.08 10.9796 175.313 6.14934C178.546 1.31904 175.313 1.25961 175.313 1.25961C175.313 1.25961 179.381 1.06272 192.642 2.88266C205.903 4.7026 229.948 1.05643 245.201 3.18321C260.455 5.30999 270.134 0.796344 277.173 4.4784C284.212 8.16046 287.944 10.4452 292.666 9.92719C297.388 9.40917 311.712 0.823081 315.151 4.86641C318.59 8.90974 319.48 16.0629 323.498 18.1143C327.517 20.1656 327.975 19.6725 333.877 18.1125C339.779 16.5526 355.188 8.19513 361.559 9.85467C367.93 11.5142 361.816 12.9762 373.601 13.1233C385.387 13.2705 390.303 7.04283 407.113 8.64803C423.923 10.2532 448.222 5.9438 454.021 7.14881C459.82 8.35383 474.376 16.0836 480.804 15.7627C487.231 15.4418 489.455 11.1857 498.456 9.39104C507.456 7.59638 514.858 4.28847 525.867 4.54397C536.875 4.79947 543.54 8.23713 546.321 9.32842C549.102 10.4197 547.579 10.3101 549.995 9.17967C552.411 8.0492 556.81 5.16506 558.806 3.20469C560.802 1.24433 572.342 8.3569 572.342 8.3569L574.333 17.9089C574.333 17.9089 558.033 22.8567 551.142 26.8569C544.251 30.8571 548.419 41.7218 550.253 47.4369C552.088 53.152 550.085 46.7679 555.047 53.593C560.009 60.418 568.53 71.6471 567.344 79.4612C566.159 87.2752 562.683 96.3243 560.588 111.414C558.494 126.503 545.342 146.037 551.188 154.402C557.033 162.766 563.585 171.799 563.08 181.815C562.574 191.831 560.753 194.639 560.472 204.279C560.191 213.918 559.828 243.286 563.049 249.371C566.269 255.455 573.766 271.219 575.378 295.708C576.989 320.197 570.158 351.235 573.059 372.857C575.961 394.479 576.139 405.959 573.059 420.857C569.979 435.755 569.277 456.502 573.059 466.357C576.841 476.212 576.787 483.801 571.823 487.357C566.859 490.913 577.515 492.151 573.059 498.261C568.604 504.371 567.481 507.629 568.015 514.935C568.549 522.242 567.601 540.602 572.585 545.581C577.57 550.559 573.939 555.189 574.642 563.357C575.345 571.525 577.626 579.542 576.637 587.075C575.647 594.608 578.094 605.636 575.865 612.315C573.637 618.994 566.022 622.55 569.175 626.581C572.327 630.612 578.381 640.123 575.865 641.668C573.35 643.212 577.634 641.218 571.823 641.668C566.012 642.117 541.96 629.405 536.06 632.37C534.478 633.165 533.83 633.451 533.631 633.533ZM533.631 633.533C533.548 633.561 533.521 633.578 533.631 633.533Z" stroke="white" stroke-width="2" stroke-miterlimit="16" stroke-linecap="round"/>
</svg>
